<svg xmlns="http://www.w3.org/2000/svg" xmlns:xlink="http://www.w3.org/1999/xlink" version="1.1" width="256" height="256" viewBox="0 0 256 256" xml:space="preserve">
<g style="stroke: none; stroke-width: 0; stroke-dasharray: none; stroke-linecap: butt; stroke-linejoin: miter; stroke-miterlimit: 10; fill: none; fill-rule: nonzero; opacity: 1;" transform="translate(1.4065934065934016 1.4065934065934016) scale(2.81 2.81)">
	<path d="M 39.513 55.325 c 3.025 2.742 7.948 2.741 10.973 0 L 90 19.504 v -1.041 c 0 -4.684 -3.797 -8.481 -8.481 -8.481 H 8.481 C 3.797 9.982 0 13.779 0 18.463 v 1.042 L 39.513 55.325 z" style="stroke: none; stroke-width: 1; stroke-dasharray: none; stroke-linecap: butt; stroke-linejoin: miter; stroke-miterlimit: 10; fill: rgb(130,130,130); fill-rule: nonzero; opacity: 1;" transform=" matrix(1 0 0 1 0 0) " stroke-linecap="round"/>
	<path d="M 57.203 62.733 c -3.422 3.103 -7.812 4.653 -12.203 4.653 c -4.391 0 -8.782 -1.551 -12.204 -4.653 L 0 33.002 v 40.535 c 0 4.684 3.797 8.481 8.481 8.481 h 73.038 c 4.684 0 8.481 -3.797 8.481 -8.481 V 33.002 L 57.203 62.733 z" style="stroke: none; stroke-width: 1; stroke-dasharray: none; stroke-linecap: butt; stroke-linejoin: miter; stroke-miterlimit: 10; fill: rgb(130,130,130); fill-rule: nonzero; opacity: 1;" transform=" matrix(1 0 0 1 0 0) " stroke-linecap="round"/>
</g>
</svg>